<svg width="18" height="18" viewBox="0 0 18 18" fill="none" xmlns="http://www.w3.org/2000/svg">
  <path d="M17.64 9.2045C17.64 8.56632 17.5827 7.95268 17.4764 7.36359H9V10.8454H13.8436C13.635 11.9704 13.0009 12.9231 12.0482 13.5613V15.8195H14.9564C16.6582 14.2522 17.64 11.9418 17.64 9.2045Z" fill="#4285F4"/>
  <path d="M9 18C11.43 18 13.4673 17.1941 14.9564 15.8195L12.0482 13.5613C11.2423 14.1013 10.2118 14.42 9 14.42C6.65591 14.42 4.67182 12.8372 3.96409 10.71H0.957275V13.0418C2.43818 15.9831 5.48182 18 9 18Z" fill="#34A853"/>
  <path d="M3.96409 10.71C3.78409 10.17 3.68182 9.59318 3.68182 9C3.68182 8.40682 3.78409 7.83 3.96409 7.29V4.95818H0.957273C0.347727 6.17364 0 7.54773 0 9C0 10.4523 0.347727 11.8264 0.957273 13.0418L3.96409 10.71Z" fill="#FBBC05"/>
  <path d="M9 3.58C10.3227 3.58 11.5091 4.03455 12.4427 4.92636L15.0218 2.34727C13.4632 0.894545 11.4259 0 9 0C5.48182 0 2.43818 2.01682 0.957275 4.95818L3.96409 7.29C4.67182 5.16273 6.65591 3.58 9 3.58Z" fill="#EA4335"/>
</svg>
